# xmcd
#
# Track frame offsets: 
#        150
#        17046
#        43744
#        61971
#        80964
#        100240
#        120786
#        137410
#        159838
#        189228
#        201148
#        219150
#        238665
#        265926
#        283972
#        304426
#        327898
#
# Disc length: 4607 seconds
#
# Revision: 2
# Processed by: cddbd v1.5.2PL0 Copyright (c) Steve Scherf et al.
# Submitted via: ExactAudioCopy v0.99pb5
#
DISCID=ec11fd11
DTITLE=Various Artist - Cold Hands Seduction · Vol. 124 · 2011-11
DYEAR=2011
DGENRE=Electro and Gothic
TTITLE0=Roterfeld - Blood Diamond Romance (The Cha Cha Cha Song)
TTITLE1=ASP - Wechselbalg
TTITLE2=Skinny Puppy - Vyrisus
TTITLE3=[:SITD:] - Code Red (Exklusiver Sonic Seducer Edit)
TTITLE4=The Frozen Autumn - Sidereal Solitude
TTITLE5=Warren Suicide (feat. T.Raumschmiere) - Moving Close (7" Edit)
TTITLE6=Henric De La Cour - Dracula
TTITLE7=AUN - Travellers
TTITLE8=Birdmachine - Confessions Of A Melting Man
TTITLE9=Cryo - Event Horizon
TTITLE10=Acylum - Shoot'Em Up
TTITLE11=Minusheart - Inglorious Bang
TTITLE12=Illuminate - GemEinsam (Exklusiver Remix)
TTITLE13=Projekt Mensch - Engel der Angst
TTITLE14=Ragnaröek - Eiskalt
TTITLE15=Aiboforcen - Time and Space
TTITLE16=Channel East - Queen Aplomb
EXTD=
EXTT0=
EXTT1=
EXTT2=
EXTT3=
EXTT4=
EXTT5=
EXTT6=
EXTT7=
EXTT8=
EXTT9=
EXTT10=
EXTT11=
EXTT12=
EXTT13=
EXTT14=
EXTT15=
EXTT16=
PLAYORDER=
